<?xml version="1.0" encoding="UTF-8"?>
<svg width="512" height="512" viewBox="0 0 512 512" fill="none" xmlns="http://www.w3.org/2000/svg">
  <circle cx="256" cy="256" r="248" fill="#2EA043" stroke="white" stroke-width="16"/>
  <path d="M256 128C223.2 128 192 140.8 168 166.4C144 192 132 224 132 256C132 288 144 320 168 345.6C192 371.2 223.2 384 256 384C288.8 384 320 371.2 344 345.6C368 320 380 288 380 256C380 224 368 192 344 166.4C320 140.8 288.8 128 256 128ZM256 352C232 352 209.6 342.4 192 324.8C174.4 307.2 164.8 284.8 164.8 260.8C164.8 236.8 174.4 214.4 192 196.8C209.6 179.2 232 169.6 256 169.6C280 169.6 302.4 179.2 320 196.8C337.6 214.4 347.2 236.8 347.2 260.8C347.2 284.8 337.6 307.2 320 324.8C302.4 342.4 280 352 256 352Z" fill="white"/>
  <path d="M256 208C268.8 208 280 213.6 288 224C296 234.4 300 246.4 300 260C300 273.6 296 285.6 288 296C280 306.4 268.8 312 256 312C243.2 312 232 306.4 224 296C216 285.6 212 273.6 212 260C212 246.4 216 234.4 224 224C232 213.6 243.2 208 256 208Z" fill="white"/>
</svg> 